<svg width="19" height="14" viewBox="0 0 19 14" fill="none" xmlns="http://www.w3.org/2000/svg">
<path d="M18.884 6.28429L12.9465 0.200379C12.7918 0.041931 12.5414 0.041931 12.3868 0.200379C12.2321 0.358827 12.2321 0.615492 12.3868 0.773901L17.6486 6.16546L0.395844 6.16546C0.177048 6.16546 0 6.34688 0 6.57107C0 6.79526 0.177048 6.97668 0.395844 6.97668L17.6486 6.97668L12.3868 12.3682C12.2321 12.5266 12.2321 12.7833 12.3868 12.9417C12.4641 13.0209 12.5654 13.0605 12.6666 13.0605C12.7679 13.0605 12.8692 13.0209 12.9465 12.9417L18.884 6.85781C19.0386 6.6994 19.0386 6.44274 18.884 6.28429Z" fill="#92140C"/>
</svg>
