<svg width="19" height="13" viewBox="0 0 19 13" fill="none" xmlns="http://www.w3.org/2000/svg">
<path d="M0.116073 6.77626L6.05354 12.8602C6.20817 13.0186 6.45866 13.0186 6.61326 12.8602C6.76789 12.7017 6.76789 12.4451 6.61326 12.2866L1.35147 6.89508L18.6042 6.89509C18.823 6.89509 19 6.71367 19 6.48948C19 6.26529 18.823 6.08387 18.6042 6.08387L1.35147 6.08387L6.61326 0.692349C6.76789 0.533901 6.76789 0.277237 6.61326 0.118827C6.53596 0.0396221 6.43465 5.86127e-07 6.33338 5.77056e-07C6.23211 5.67984e-07 6.13084 0.039622 6.0535 0.118827L0.116036 6.20274C-0.0385606 6.36114 -0.0385604 6.61781 0.116073 6.77626Z" fill="#0E76B1"/>
</svg>
