<svg width="46" height="46" viewBox="0 0 46 46" fill="none" xmlns="http://www.w3.org/2000/svg">
<g clip-path="url(#clip0)">
<path d="M37.4817 0H33.486C33.1138 0 32.8122 0.301605 32.8122 0.673828C32.8122 1.04605 33.1138 1.34766 33.486 1.34766H37.427V1.98222L30.2014 4.3488C30.0249 3.06538 29.0588 2.03092 27.8103 1.75249V1.34766H30.7422C31.1144 1.34766 31.416 1.04605 31.416 0.673828C31.416 0.301605 31.1144 0 30.7422 0H27.7811C27.0541 0 26.4627 0.591441 26.4627 1.31846V1.75249C25.7411 1.9134 25.1139 2.32668 24.6787 2.89504H22.3736C21.717 2.89504 21.183 3.42907 21.183 4.08564V4.09849H19.2517C14.654 4.09849 10.9134 7.83905 10.9134 12.4368V23.628H10.0095C9.16389 23.628 8.47596 24.3159 8.47596 25.1616V26.2328C8.47596 26.6184 8.66598 26.9595 8.95645 27.1702L7.98128 34.3951C7.93151 34.7638 8.19008 35.1032 8.55898 35.153C8.92689 35.2028 9.26713 34.9442 9.3169 34.5753L10.2866 27.3912H12.888L14.5967 40.0506C14.6223 40.2397 14.5483 40.3779 14.5059 40.4154H8.66868C8.62627 40.3779 8.55224 40.2398 8.57775 40.0505L8.94962 37.2959C8.99939 36.9272 8.74082 36.5878 8.37192 36.538C8.00392 36.4882 7.66377 36.7468 7.614 37.1157L7.24214 39.8703C7.17179 40.3919 7.32192 40.9229 7.64356 41.2909C7.90977 41.5954 8.26573 41.7631 8.64586 41.7631H14.5286C14.9088 41.7631 15.2647 41.5954 15.5309 41.2908C15.8526 40.9227 16.0025 40.3918 15.9322 39.8703L14.218 27.1701C14.5084 26.9594 14.6985 26.6182 14.6985 26.2328V25.1616C14.6985 24.3159 14.0105 23.6279 13.1648 23.6279H12.261V12.4367C12.261 8.58214 15.397 5.44606 19.2516 5.44606H21.1829V5.45891C21.1829 6.11539 21.717 6.64943 22.3735 6.64943H24.3345V8.37577C24.3345 8.42456 24.3003 8.46741 24.255 8.47541C20.4699 9.1487 17.7227 12.4311 17.7227 16.2801V16.5379H17.6609C17.2886 16.5379 16.987 16.8395 16.987 17.2117C16.987 17.584 17.2886 17.8856 17.6609 17.8856H17.7227V36.3927H17.6609C17.2886 36.3927 16.987 36.6943 16.987 37.0665C16.987 37.4387 17.2886 37.7403 17.6609 37.7403H17.7227V40.3944C17.7227 41.769 18.6575 42.9288 19.9247 43.2731V44.21C19.9247 45.197 20.7277 46 21.7148 46H32.8233C33.8103 46 34.6133 45.197 34.6133 44.21V43.1876C35.7435 42.7628 36.5503 41.6712 36.5503 40.3944V37.7403H36.6121C36.9843 37.7403 37.2859 37.4387 37.2859 37.0665C37.2859 36.6943 36.9843 36.3927 36.6121 36.3927H36.5503V25.3976C36.5503 25.0253 36.2486 24.7237 35.8764 24.7237C35.5042 24.7237 35.2026 25.0253 35.2026 25.3976V36.3927H19.0705V17.8856H35.2027V22.6537C35.2027 23.0259 35.5043 23.3275 35.8765 23.3275C36.2487 23.3275 36.5503 23.0259 36.5503 22.6537V17.8856H36.6122C36.9844 17.8856 37.286 17.584 37.286 17.2117C37.286 16.8395 36.9844 16.5379 36.6122 16.5379H36.5503V16.2801C36.5503 12.4311 33.8031 9.1487 30.018 8.47541C29.9726 8.46732 29.9385 8.42456 29.9385 8.37577V6.08386C29.9793 5.99689 30.0165 5.90786 30.0492 5.81675L31.4275 5.36529L36.9773 6.72157C37.031 6.73469 37.0847 6.74107 37.1377 6.74107C37.4411 6.74107 37.7165 6.53478 37.7917 6.22698C37.88 5.86554 37.6587 5.50077 37.2971 5.41255L33.8531 4.57089L37.8841 3.25064C38.4168 3.07625 38.7746 2.58238 38.7746 2.02184V1.29303C38.7746 0.580031 38.1946 0 37.4817 0V0ZM13.351 25.1617V26.0436H9.82371V25.1617C9.82371 25.0591 9.90717 24.9758 10.0096 24.9758H13.1649C13.2675 24.9757 13.351 25.0591 13.351 25.1617ZM33.2657 44.21C33.2657 44.4539 33.0673 44.6523 32.8234 44.6523H21.7149C21.4709 44.6523 21.2724 44.4539 21.2724 44.21V43.3775H33.2657V44.21H33.2657ZM35.2026 37.7403V40.3944C35.2026 41.2961 34.4689 42.0298 33.5671 42.0298H20.7059C19.8042 42.0298 19.0705 41.2961 19.0705 40.3944V37.7403H35.2026ZM27.1365 3.0254C28.0997 3.0254 28.8833 3.80911 28.8833 4.77223C28.8833 5.73536 28.0996 6.51897 27.1365 6.51897C26.1734 6.51897 25.3897 5.73536 25.3897 4.77223C25.3897 3.80911 26.1733 3.0254 27.1365 3.0254ZM22.5307 4.24269H24.0882C24.0584 4.41492 24.0419 4.59164 24.0419 4.77232C24.0419 4.95291 24.0584 5.12963 24.0882 5.30186H22.5307V4.24269ZM35.2026 16.2801V16.5379H19.0705V16.2801C19.0705 13.0852 21.3502 10.3609 24.4912 9.80213C25.1813 9.67941 25.6823 9.07952 25.6823 8.37568V7.50258C26.1162 7.73456 26.6112 7.86663 27.1366 7.86663C27.662 7.86663 28.157 7.73465 28.5909 7.50258V8.37568C28.5909 9.07952 29.0919 9.67941 29.7821 9.80213C32.9229 10.3609 35.2026 13.0853 35.2026 16.2801Z" fill="#92140C"/>
<path d="M22.8667 20.0725C22.1048 20.0725 21.4849 20.6923 21.4849 21.4544V32.8239C21.4849 33.5859 22.1047 34.2058 22.8667 34.2058H31.4059C32.1679 34.2058 32.7878 33.586 32.7878 32.8239V21.4544C32.7878 20.6924 32.168 20.0725 31.4059 20.0725H22.8667ZM31.4401 21.4544V32.8239C31.4401 32.8428 31.4247 32.8582 31.4059 32.8582H22.8667C22.8479 32.8582 22.8325 32.8428 22.8325 32.8239V21.4544C22.8325 21.4355 22.8479 21.4202 22.8667 21.4202H31.4059C31.4248 21.4202 31.4401 21.4355 31.4401 21.4544Z" fill="#92140C"/>
<path d="M29.34 22.6632H24.9326C24.5604 22.6632 24.2588 22.9648 24.2588 23.337C24.2588 23.7093 24.5604 24.0109 24.9326 24.0109H29.34C29.7122 24.0109 30.0138 23.7093 30.0138 23.337C30.0138 22.9648 29.7122 22.6632 29.34 22.6632Z" fill="#92140C"/>
<path d="M29.34 25.1981H24.9326C24.5604 25.1981 24.2588 25.4997 24.2588 25.8719C24.2588 26.2442 24.5604 26.5458 24.9326 26.5458H29.34C29.7122 26.5458 30.0138 26.2442 30.0138 25.8719C30.0138 25.4997 29.7122 25.1981 29.34 25.1981Z" fill="#92140C"/>
<path d="M29.34 27.7327H24.9326C24.5604 27.7327 24.2588 28.0343 24.2588 28.4065C24.2588 28.7787 24.5604 29.0803 24.9326 29.0803H29.34C29.7122 29.0803 30.0138 28.7787 30.0138 28.4065C30.0138 28.0343 29.7122 27.7327 29.34 27.7327Z" fill="#92140C"/>
<path d="M29.34 30.2673H24.9326C24.5604 30.2673 24.2588 30.5689 24.2588 30.9412C24.2588 31.3134 24.5604 31.615 24.9326 31.615H29.34C29.7122 31.615 30.0138 31.3134 30.0138 30.9412C30.0138 30.5689 29.7122 30.2673 29.34 30.2673Z" fill="#92140C"/>
</g>
<defs>
<clipPath id="clip0">
<rect width="46" height="46" fill="white"/>
</clipPath>
</defs>
</svg>
