<svg width="25" height="25" viewBox="0 0 25 25" fill="none" xmlns="http://www.w3.org/2000/svg">
<path d="M23.3981 18.7437L18.7424 15.639C18.1516 15.2481 17.3597 15.3767 16.9229 15.9345L15.5668 17.6781C15.3925 17.9079 15.0757 17.9746 14.8235 17.8345L14.5656 17.6923C13.7104 17.2262 12.6464 16.6459 10.5026 14.5013C8.35874 12.3567 7.77728 11.2919 7.31116 10.4383L7.16971 10.1803C7.02772 9.92826 7.09312 9.6101 7.32302 9.43442L9.06549 8.07869C9.62302 7.64186 9.7518 6.85013 9.36141 6.25914L6.25665 1.60353C5.85656 1.00171 5.05387 0.821048 4.43449 1.19338L2.48768 2.36283C1.87598 2.72244 1.4272 3.30486 1.23545 3.98802C0.534406 6.54235 1.06179 10.9507 7.55574 17.4454C12.7215 22.6108 16.5672 23.9999 19.2105 23.9999C19.8188 24.0025 20.4248 23.9234 21.012 23.7646C21.6953 23.5731 22.2778 23.1243 22.6372 22.5124L23.8078 20.5667C24.1807 19.9472 24.0001 19.144 23.3981 18.7437ZM23.1474 20.1734L21.9794 22.1202C21.7214 22.5619 21.3024 22.8866 20.8104 23.0264C18.4523 23.6738 14.3325 23.1375 8.09808 16.9031C1.86363 10.6686 1.32744 6.54927 1.97485 4.19083C2.11482 3.69816 2.43994 3.27867 2.88211 3.02021L4.82892 1.85228C5.09767 1.69058 5.44605 1.76896 5.61966 2.03012L7.30622 4.56221L8.72177 6.68533C8.8913 6.94168 8.8356 7.28526 8.59376 7.47495L6.85088 8.83067C6.32048 9.23624 6.16902 9.97007 6.49557 10.5525L6.63397 10.8039C7.12385 11.7024 7.7329 12.8201 9.95645 15.0433C12.18 17.2664 13.2973 17.8755 14.1954 18.3654L14.4472 18.5041C15.0296 18.8306 15.7635 18.6792 16.169 18.1488L17.5248 16.4059C17.7145 16.1642 18.0579 16.1086 18.3144 16.2779L22.9696 19.3827C23.2309 19.5562 23.3093 19.9047 23.1474 20.1734Z" fill="white" stroke="white" stroke-width="0.5"/>
<path d="M14.0337 4.83481C17.6308 4.83881 20.5458 7.75388 20.5499 11.351C20.5499 11.5627 20.7214 11.7343 20.9331 11.7343C21.1448 11.7343 21.3164 11.5627 21.3164 11.351C21.312 7.33066 18.054 4.07264 14.0337 4.06824C13.822 4.06824 13.6504 4.23983 13.6504 4.45153C13.6504 4.66323 13.822 4.83481 14.0337 4.83481Z" fill="white" stroke="white" stroke-width="0.5"/>
<path d="M14.0337 7.13462C16.3612 7.13736 18.2473 9.02348 18.25 11.351C18.25 11.5627 18.4217 11.7343 18.6333 11.7343C18.845 11.7343 19.0166 11.5627 19.0166 11.351C19.0134 8.60026 16.7843 6.37119 14.0337 6.36804C13.822 6.36804 13.6504 6.53963 13.6504 6.75133C13.6504 6.96303 13.822 7.13462 14.0337 7.13462Z" fill="white" stroke="white" stroke-width="0.5"/>
<path d="M14.0337 9.43442C15.0916 9.43568 15.9489 10.293 15.9502 11.351C15.9502 11.5627 16.1218 11.7342 16.3335 11.7342C16.5452 11.7342 16.7168 11.5627 16.7168 11.351C16.7151 9.86982 15.5148 8.66951 14.0337 8.66785C13.822 8.66785 13.6504 8.83944 13.6504 9.05114C13.6504 9.26284 13.822 9.43442 14.0337 9.43442Z" fill="white" stroke="white" stroke-width="0.5"/>
</svg>
