<svg width="23" height="23" viewBox="0 0 23 23" fill="none" xmlns="http://www.w3.org/2000/svg">
<path d="M11.5 0C5.14872 0 0 5.14872 0 11.5C0 17.8512 5.14872 23 11.5 23C17.8512 23 23 17.8512 23 11.5C22.9932 5.15156 17.8484 0.00678641 11.5 0ZM11.5 21.3571C6.05603 21.3571 1.64284 16.9439 1.64284 11.5C1.64284 6.05603 6.05603 1.64284 11.5 1.64284C16.9439 1.64284 21.3571 6.05603 21.3571 11.5C21.3512 16.9415 16.9415 21.3512 11.5 21.3571Z" fill="#808080"/>
<path d="M11.4998 4.10712C11.0461 4.10712 10.6783 4.47488 10.6783 4.92856V10.6786H4.92838C4.4747 10.6786 4.10693 11.0463 4.10693 11.5C4.10693 11.9537 4.4747 12.3214 4.92838 12.3214H11.4998C11.9535 12.3214 12.3212 11.9536 12.3212 11.5V4.92856C12.3212 4.47488 11.9535 4.10712 11.4998 4.10712Z" fill="#808080"/>
</svg>
